<?xml version="1.0" encoding="utf-8"?>
<!-- Generator: Adobe Illustrator 16.0.0, SVG Export Plug-In . SVG Version: 6.00 Build 0)  -->
<!DOCTYPE svg PUBLIC "-//W3C//DTD SVG 1.1//EN" "http://www.w3.org/Graphics/SVG/1.1/DTD/svg11.dtd">
<svg version="1.1" id="Layer_1" xmlns="http://www.w3.org/2000/svg" xmlns:xlink="http://www.w3.org/1999/xlink" x="0px" y="0px"
	 width="360px" height="250px" viewBox="0 0 360 250" enable-background="new 0 0 360 250" xml:space="preserve">
<polygon fill="#364751" points="-0.486,-2.002 -0.392,144.092 272.498,217.055 360.726,151.276 360.819,-2.002 "/>
<path fill="#44A04B" d="M-0.457,138.905l228.661,56.957c0,0,29.592,12.68,63.405-3.171c0,0,62.8-35.175,69.141-44.687v13.625
	l-63.135,67.38c0,0-27.733,28.799-77.864,9.121L-0.457,145.54V138.905z"/>
<path fill="#44A04B" d="M263.302,160.606c-18.005,0-32.604,14.598-32.604,32.604s14.599,32.603,32.604,32.603
	s32.603-14.597,32.603-32.603S281.307,160.606,263.302,160.606z M263.302,220.637c-15.149,0-27.43-12.282-27.43-27.427
	c0-15.147,12.28-27.428,27.43-27.428s27.428,12.28,27.428,27.428C290.729,208.354,278.451,220.637,263.302,220.637z"/>
<path fill="#44A04B" d="M152.052,176.894c6.872-49.617,49.448-88.821,100.954-88.821c44.888,0,82.982,29.022,96.584,69.321
	c1.895-1.33,3.618-2.592,5.129-3.762c-14.932-41.75-54.83-71.627-101.713-71.627c-54.858,0-100.231,40.374-107.151,93.346
	L152.052,176.894z"/>
</svg>
